<svg xmlns="http://www.w3.org/2000/svg" width="1000" height="500">
		<style>
			.title { font: bold 24px 'Arial', sans-serif; fill: #333; }
			.legend-text { font: 14px 'Arial', sans-serif; fill: #666; }
			.axis-text { font: 12px 'Arial', sans-serif; fill: #999; }
			.label-text { font: 12px 'Arial', sans-serif; fill: #333; }
			.time-text { font: 10px 'Arial', sans-serif; fill: #666; }
			.visit-box { fill: #4CAF50; opacity: 0.7; }
			.break-box { fill: #FFC107; opacity: 0.7; }
			.window-box { fill: none; stroke: #2196F3; stroke-width: 2; opacity: 0.5; }
		</style>
	<text x="500" y="40" class="title" text-anchor="middle">Shift Team Timeline</text><rect x="10" y="70" width="20" height="20" class="visit-box" rx="3" /><text x="40" y="80" class="legend-text" alignment-baseline="middle">Visit</text><rect x="100" y="70" width="20" height="20" class="break-box" rx="3" /><text x="130" y="80" class="legend-text" alignment-baseline="middle">Break</text><rect x="190" y="70" width="20" height="20" class="window-box" rx="3" /><text x="220" y="80" class="legend-text" alignment-baseline="middle">Arrival Window</text><rect x="40" y="140" width="920" height="320" fill="#f8f9fa" rx="5" /><line x1="50" y1="150" x2="50" y2="480" stroke="#e9ecef" stroke-width="1" /><text x="50" y="495" class="axis-text" text-anchor="middle">07:00</text><line x1="140" y1="150" x2="140" y2="480" stroke="#e9ecef" stroke-width="1" /><text x="140" y="495" class="axis-text" text-anchor="middle">08:00</text><line x1="230" y1="150" x2="230" y2="480" stroke="#e9ecef" stroke-width="1" /><text x="230" y="495" class="axis-text" text-anchor="middle">09:00</text><line x1="320" y1="150" x2="320" y2="480" stroke="#e9ecef" stroke-width="1" /><text x="320" y="495" class="axis-text" text-anchor="middle">10:00</text><line x1="410" y1="150" x2="410" y2="480" stroke="#e9ecef" stroke-width="1" /><text x="410" y="495" class="axis-text" text-anchor="middle">11:00</text><line x1="500" y1="150" x2="500" y2="480" stroke="#e9ecef" stroke-width="1" /><text x="500" y="495" class="axis-text" text-anchor="middle">12:00</text><line x1="590" y1="150" x2="590" y2="480" stroke="#e9ecef" stroke-width="1" /><text x="590" y="495" class="axis-text" text-anchor="middle">13:00</text><line x1="680" y1="150" x2="680" y2="480" stroke="#e9ecef" stroke-width="1" /><text x="680" y="495" class="axis-text" text-anchor="middle">14:00</text><line x1="770" y1="150" x2="770" y2="480" stroke="#e9ecef" stroke-width="1" /><text x="770" y="495" class="axis-text" text-anchor="middle">15:00</text><line x1="860" y1="150" x2="860" y2="480" stroke="#e9ecef" stroke-width="1" /><text x="860" y="495" class="axis-text" text-anchor="middle">16:00</text><line x1="950" y1="150" x2="950" y2="480" stroke="#e9ecef" stroke-width="1" /><text x="950" y="495" class="axis-text" text-anchor="middle">17:00</text><rect x="40" y="160" width="920" height="40" fill="#f1f3f5" rx="3" /><rect x="50" y="170" width="360" height="20" class="window-box" rx="3" /><rect x="128" y="170" width="46" height="20" class="visit-box" rx="3" /><text x="133" y="165" class="label-text">29819958 (visit)</text><text x="45" y="200" class="time-text" text-anchor="end">07:00</text><text x="415" y="200" class="time-text">11:00</text><text x="123" y="185" class="time-text" text-anchor="end">07:52</text><text x="179" y="185" class="time-text">08:22</text><rect x="50" y="220" width="360" height="20" class="window-box" rx="3" /><rect x="213" y="220" width="97" height="20" class="visit-box" rx="3" /><text x="218" y="215" class="label-text">29824406 (visit)</text><text x="45" y="250" class="time-text" text-anchor="end">07:00</text><text x="415" y="250" class="time-text">11:00</text><text x="208" y="235" class="time-text" text-anchor="end">08:48</text><text x="315" y="235" class="time-text">09:53</text><rect x="40" y="260" width="920" height="40" fill="#f1f3f5" rx="3" /><rect x="50" y="270" width="360" height="20" class="window-box" rx="3" /><rect x="360" y="270" width="51" height="20" class="visit-box" rx="3" /><text x="365" y="265" class="label-text">29828304 (visit)</text><text x="45" y="300" class="time-text" text-anchor="end">07:00</text><text x="415" y="300" class="time-text">11:00</text><text x="355" y="285" class="time-text" text-anchor="end">10:26</text><text x="416" y="285" class="time-text">11:01</text><rect x="140" y="320" width="360" height="20" class="window-box" rx="3" /><rect x="476" y="320" width="54" height="20" class="visit-box" rx="3" /><text x="481" y="315" class="label-text">29832762 (visit)</text><text x="135" y="350" class="time-text" text-anchor="end">08:00</text><text x="505" y="350" class="time-text">12:00</text><text x="471" y="335" class="time-text" text-anchor="end">11:44</text><text x="535" y="335" class="time-text">12:20</text><rect x="40" y="360" width="920" height="40" fill="#f1f3f5" rx="3" /><rect x="540" y="370" width="45" height="20" class="break-box" rx="3" /><text x="545" y="365" class="label-text">64439 (break)</text><text x="535" y="385" class="time-text" text-anchor="end">12:27</text><text x="590" y="385" class="time-text">12:57</text><rect x="230" y="420" width="360" height="20" class="window-box" rx="3" /><rect x="-43166560" y="420" width="0" height="20" class="visit-box" rx="3" /><text x="-43166555" y="415" class="label-text">29835280 (visit)</text><text x="225" y="450" class="time-text" text-anchor="end">09:00</text><text x="595" y="450" class="time-text">13:00</text><text x="-43166565" y="435" class="time-text" text-anchor="end">17:00</text><text x="-43166555" y="435" class="time-text">17:00</text></svg>